<svg width="23" height="23" viewBox="0 0 23 23" fill="none" xmlns="http://www.w3.org/2000/svg">
<path d="M11.1996 0C5.02861 0 0 5.1635 0 11.5C0 17.8365 5.02861 23 11.1996 23C17.3706 23 22.3992 17.8365 22.3992 11.5C22.3992 5.1635 17.3706 0 11.1996 0ZM15.6794 12.3625H12.0395V16.1C12.0395 16.5715 11.6588 16.9625 11.1996 16.9625C10.7404 16.9625 10.3596 16.5715 10.3596 16.1V12.3625H6.71975C6.26057 12.3625 5.87978 11.9715 5.87978 11.5C5.87978 11.0285 6.26057 10.6375 6.71975 10.6375H10.3596V6.9C10.3596 6.4285 10.7404 6.0375 11.1996 6.0375C11.6588 6.0375 12.0395 6.4285 12.0395 6.9V10.6375H15.6794C16.1386 10.6375 16.5194 11.0285 16.5194 11.5C16.5194 11.9715 16.1386 12.3625 15.6794 12.3625Z" fill="white" fillOpacity="0.5"/>
</svg>
