<svg width="21" height="21" viewBox="0 0 21 21" fill="none" xmlns="http://www.w3.org/2000/svg">
<path d="M10.5 0C13.399 0 16.0244 1.17551 17.9242 3.07576C19.8245 4.97561 21 7.60102 21 10.5C21 13.399 19.8245 16.0244 17.9242 17.9242C16.0244 19.8245 13.399 21 10.5 21C7.60102 21 4.97561 19.8245 3.07576 17.9242C1.17551 16.0244 0 13.399 0 10.5C0 7.60102 1.17551 4.97561 3.07576 3.07576C4.97561 1.17551 7.60102 0 10.5 0Z" fill="#999999"/>
<path d="M10.4999 0.798981C13.1782 0.798981 15.6047 1.88507 17.3598 3.64013L17.4045 3.68853C19.1329 5.44031 20.2009 7.84628 20.2009 10.4996C20.2009 13.1783 19.114 15.6044 17.359 17.3594L17.3106 17.4042C15.558 19.1334 13.1516 20.201 10.4999 20.201C7.82447 20.201 5.39881 19.1137 3.64293 17.3574C1.88582 15.6044 0.799316 13.1783 0.799316 10.4996C0.799316 7.82086 1.88541 5.39519 3.64047 3.64013C5.39553 1.88507 7.8216 0.798981 10.4999 0.798981Z" fill="white"/>
<path d="M10.5 1.62381C15.4022 1.62381 19.3762 5.59781 19.3762 10.4996C19.3762 15.4018 15.4022 19.3762 10.5 19.3762C5.59827 19.3762 1.62427 15.4018 1.62427 10.4996C1.62427 5.59781 5.59827 1.62381 10.5 1.62381Z" fill="#FEFEFE"/>
<path d="M7.52597 7.36436V2.13487C5.8312 2.7378 4.37392 3.84153 3.3313 5.26641L7.52597 7.36436ZM7.52597 13.6357V18.8651C5.83202 18.2622 4.37515 17.1593 3.33171 15.7336L7.52597 13.6357ZM13.4548 13.6357V18.8721C15.1549 18.2721 16.6167 17.1683 17.6634 15.741L13.4548 13.6357ZM13.4548 7.36436V2.1279C15.1549 2.72796 16.6175 3.83169 17.6638 5.25944L13.4548 7.36436Z" fill="#012169"/>
<path d="M18.3874 13.4597H16.4141L18.4382 14.4736C18.5699 14.2107 18.6888 13.9404 18.7946 13.6635L18.3874 13.4597ZM18.0043 5.7586L14.4597 7.5358H16.433L18.4407 6.53092C18.3082 6.26596 18.1622 6.00797 18.0043 5.7586ZM8.71218 12.2743V19.1957C9.28968 19.3134 9.88769 19.3762 10.5 19.3762C11.1054 19.3762 11.6973 19.3151 12.2691 19.1998V12.2743H19.1982C19.3143 11.7009 19.3762 11.1079 19.3762 10.4996C19.3762 9.88928 19.3143 9.29291 19.197 8.71664H12.2691V1.80059C11.6867 1.68288 11.0941 1.62366 10.5 1.62381C9.88769 1.62381 9.28968 1.68697 8.71218 1.80428V8.71664H1.80351C1.68415 9.30345 1.6241 9.90077 1.62427 10.4996C1.62427 11.1079 1.6862 11.7009 1.80228 12.2743H8.71218ZM2.58896 7.54031H4.56222L2.55696 6.53625C2.42571 6.79916 2.30636 7.07028 2.20095 7.34672L2.58896 7.54031ZM6.52112 13.4642H4.54786L2.55573 14.4613C2.68879 14.7274 2.83513 14.9867 2.99419 15.2381L6.53917 13.4642H6.52112Z" fill="#C8102E"/>
</svg>
