<svg width="403" height="403" viewBox="0 0 303 303" fill="none" xmlns="http://www.w3.org/2000/svg">
<path d="M178.904 263.743C231.714 260.233 273.781 217.569 277.242 164.01C277.919 153.529 277.919 142.674 277.242 132.193C273.781 78.6333 231.714 35.9703 178.904 32.4598C160.887 31.2622 142.077 31.2647 124.096 32.4598C71.2856 35.9703 29.2194 78.6333 25.758 132.193C25.0807 142.674 25.0807 153.529 25.758 164.01C27.0187 183.517 35.6458 201.578 45.8023 216.829C51.6995 227.506 47.8076 240.832 41.6651 252.472C37.2363 260.865 35.0218 265.062 36.7998 268.093C38.5779 271.124 42.5495 271.222 50.4928 271.415C66.2013 271.797 76.7938 267.343 85.2021 261.143C89.9708 257.627 92.3553 255.868 93.9986 255.666C95.6419 255.464 98.8761 256.796 105.343 259.46C111.156 261.854 117.904 263.331 124.096 263.743C142.077 264.938 160.887 264.941 178.904 263.743Z" stroke="#8D93AC" stroke-width="7" stroke-linejoin="round"/>
<path d="M151.441 151.5H151.553M201.884 151.5H201.998M100.997 151.5H101.11" stroke="#8D93AC" stroke-width="5" stroke-linecap="round" stroke-linejoin="round"/>
</svg>