<svg width="152" height="89" viewBox="0 0 152 89" fill="none" xmlns="http://www.w3.org/2000/svg">
<path d="M11.712 31.88V47.88H17.408C19.7547 45.96 20.928 43.144 20.928 39.432C20.928 37.8533 20.608 36.36 19.968 34.952C19.3707 33.544 18.6453 32.52 17.792 31.88H11.712ZM3.072 69V24.2H20.416C23.3173 25.48 25.6 27.4427 27.264 30.088C28.9707 32.7333 29.824 35.8267 29.824 39.368C29.824 42.8667 28.9493 46.1093 27.2 49.096C25.4507 52.0827 22.8693 54.1947 19.456 55.432H11.712V69H3.072ZM52.3955 69H38.4435C34.1768 65.032 32.0435 59.6133 32.0435 52.744C32.0435 49.288 32.5128 46.28 33.4515 43.72C34.4328 41.16 35.9688 38.6853 38.0595 36.296H53.0355C55.2542 38.856 56.7688 41.352 57.5795 43.784C58.3902 46.1733 58.7955 49.16 58.7955 52.744C58.7955 59.6133 56.6622 65.032 52.3955 69ZM42.9875 62.28H47.8515C49.3875 59.2933 50.1555 55.9013 50.1555 52.104C50.1555 48.3067 49.3662 45.2773 47.7875 43.016H42.9875C41.4515 45.192 40.6835 48.2853 40.6835 52.296C40.6835 56.264 41.4515 59.592 42.9875 62.28ZM77.585 36.296H84.369C86.2463 38.6853 87.5263 41.0747 88.209 43.464C88.8917 45.8533 89.233 48.84 89.233 52.424V69H80.721V51.784C80.721 47.7307 80.1663 44.808 79.057 43.016H71.889V69H63.377V36.296H70.033L71.185 38.6C72.1237 37.7467 72.9983 37.1493 73.809 36.808C74.6623 36.4667 75.921 36.296 77.585 36.296ZM119.27 36.296V65.608C119.27 68.8507 118.843 71.4533 117.99 73.416C117.179 75.3787 115.537 77.1067 113.062 78.6H98.47V71.944H109.414C110.481 71.304 111.014 70.28 111.014 68.872V65.096C109.435 66.4187 106.918 67.08 103.462 67.08H98.79C95.334 62.9413 93.606 58.1413 93.606 52.68C93.606 48.7547 94.1607 45.5547 95.27 43.08C96.3793 40.5627 98.0007 38.3013 100.134 36.296H104.87C107.643 36.296 109.841 37.192 111.462 38.984L112.614 36.296H119.27ZM110.758 43.016H104.55C103.014 45.6613 102.246 48.712 102.246 52.168C102.246 55.5813 102.907 58.3973 104.23 60.616H110.758V43.016ZM124.31 51.016V36.296H132.822V51.08C132.822 54.792 133.569 57.8853 135.062 60.36H138.838C140.246 57.928 140.95 54.8347 140.95 51.08V36.296H149.462V50.568C149.462 53.768 149.035 56.584 148.182 59.016C147.371 61.448 146.027 64.2 144.15 67.272L139.862 74.248C139.094 75.5707 138.283 76.552 137.43 77.192C136.577 77.832 135.467 78.3013 134.102 78.6H123.99V71.88H130.902C131.798 71.624 132.545 71.176 133.142 70.536C133.739 69.896 134.358 68.9787 134.998 67.784L135.382 67.08H130.966C128.918 65.416 127.297 63.176 126.102 60.36C124.907 57.5013 124.31 54.3867 124.31 51.016Z" fill="white"/>
<rect y="9" width="68" height="4" fill="#F62943"/>
<rect x="73" y="9" width="14" height="4" fill="#F62943"/>
<rect x="93" y="9" width="9" height="4" fill="#F62943"/>
<rect x="108" y="9" width="6" height="4" fill="#F62943"/>
</svg>
