<svg width="160" height="160" viewBox="0 0 160 160" fill="none" xmlns="http://www.w3.org/2000/svg">
<path d="M124.291 26.6668C123.303 24.1163 121.955 21.9934 120.117 20.1677C113.234 13.3335 102.156 13.3335 80.0002 13.3335C57.8442 13.3335 46.7662 13.3335 39.8833 20.1677C38.0446 21.9934 36.697 24.1163 35.7095 26.6668M33.3335 120C33.9145 129.463 35.5088 135.489 39.8833 139.833C46.7662 146.667 57.8442 146.667 80.0002 146.667C102.156 146.667 113.234 146.667 120.117 139.833C124.491 135.489 126.085 129.463 126.667 120" stroke="white" stroke-width="8" stroke-linecap="round"/>
<path d="M40 66.6665L53.3333 79.9998M53.3333 66.6665L40 79.9998" stroke="white" stroke-width="8" stroke-linecap="round" stroke-linejoin="round"/>
<path d="M73.3335 66.6665L86.6668 79.9998M86.6668 66.6665L73.3335 79.9998" stroke="white" stroke-width="8" stroke-linecap="round" stroke-linejoin="round"/>
<path d="M106.667 66.6665L120 79.9998M120 66.6665L106.667 79.9998" stroke="white" stroke-width="8" stroke-linecap="round" stroke-linejoin="round"/>
<path d="M113.333 46.6665H46.6667C34.0959 46.6665 27.8105 46.6665 23.9053 50.5718C20 54.477 20 60.7624 20 73.3332C20 85.9038 20 92.1892 23.9053 96.0945C27.8105 99.9998 34.0959 99.9998 46.6667 99.9998H113.333C125.904 99.9998 132.189 99.9998 136.095 96.0945C140 92.1892 140 85.9038 140 73.3332C140 60.7624 140 54.477 136.095 50.5718C132.189 46.6665 125.904 46.6665 113.333 46.6665Z" stroke="white" stroke-width="8" stroke-linecap="round" stroke-linejoin="round"/>
<path d="M80 126.667V126.733" stroke="white" stroke-width="8" stroke-linecap="round" stroke-linejoin="round"/>
</svg>
