<svg width="24" height="24" viewBox="0 0 24 24" fill="none" xmlns="http://www.w3.org/2000/svg">
<path d="M7.98749 9.49195L5.6781 7.51379C4.15497 6.2036 4.14987 4.30219 3.9873 3.02026C5.65365 3.09934 6.9444 3.25021 8.06843 4.19971L9.2443 5.53562L10.5168 6.9643M19.4582 18.4189L16.4935 15.419M14.0225 18.4189C14.0451 18.1466 14.2233 17.4408 15.0418 16.6846C15.7761 16.0062 17.3686 14.3801 18.0842 13.6751C18.4895 13.2757 19.1541 12.9954 19.4582 12.996M15.5693 12.8088L16.9059 14.2877M13.6772 14.4371L15.1715 15.7506M20.4625 17.981C21.2929 17.9826 22.0021 18.5959 22.0005 19.4258C21.9989 20.2557 21.2929 20.9833 20.4625 20.9817C19.6321 20.9801 18.9918 20.2499 18.9933 19.4201C19.047 18.5943 19.6578 18.0921 20.4625 17.981Z" stroke="white" stroke-linecap="round" stroke-linejoin="round"/>
<path d="M4.59593 18.3932L7.5539 15.5009M4.56157 12.9873C4.83402 13.0094 5.59356 13.1913 6.274 14.0413C6.89871 14.8217 8.58371 16.3308 9.29061 17.0446C9.69102 17.4489 9.97105 18.0893 9.97105 18.3932M7.2645 14.2301L15.5035 4.66436C16.8442 3.16824 18.7178 3.13556 20.0036 2.99829C19.8918 4.66166 19.7155 5.94835 18.7435 7.05278L8.54959 15.9266M5.00618 19.499C5.00618 20.3289 4.33301 21.0016 3.5026 21.0016C2.6722 21.0016 1.99902 20.3289 1.99902 19.499C1.99902 18.6692 2.6722 17.9964 3.5026 17.9964C4.33301 17.9964 5.00618 18.6692 5.00618 19.499Z" stroke="white" stroke-linecap="round" stroke-linejoin="round"/>
</svg>
