<svg width="39" height="40" viewBox="0 0 39 40" fill="none" xmlns="http://www.w3.org/2000/svg">
<path d="M39.0037 20.4607C39.0037 19.1011 38.894 17.7342 38.6601 16.3967H19.8948V24.0984H30.6408C30.1949 26.5823 28.7621 28.7796 26.664 30.1759V35.1731H33.0751C36.8399 31.6898 39.0037 26.5455 39.0037 20.4607Z" fill="#4285F4"/>
<path d="M19.8948 40.0014C25.2605 40.0014 29.7855 38.2303 33.0824 35.1731L26.6713 30.1759C24.8877 31.3958 22.5849 32.0866 19.9021 32.0866C14.7118 32.0866 10.3111 28.5665 8.73208 23.8338H2.11633V28.9854C5.49365 35.739 12.3726 40.0014 19.8948 40.0014Z" fill="#34A853"/>
<path d="M8.72474 23.8338C7.89138 21.3499 7.89138 18.6602 8.72474 16.1763V11.0247H2.11631C-0.705436 16.676 -0.705436 23.3341 2.11631 28.9854L8.72474 23.8338Z" fill="#FBBC04"/>
<path d="M19.8948 7.9161C22.7311 7.87201 25.4725 8.94495 27.5266 10.9144L33.2067 5.20436C29.6101 1.80917 24.8365 -0.0574433 19.8948 0.00134778C12.3726 0.00134778 5.49365 4.2637 2.11633 11.0247L8.72477 16.1763C10.2965 11.4362 14.7045 7.9161 19.8948 7.9161Z" fill="#EA4335"/>
</svg>
