<svg width="29" height="29" viewBox="0 0 29 29" fill="none" xmlns="http://www.w3.org/2000/svg">
<path d="M14.524 24.807C11.7085 24.807 8.89309 24.3599 6.22268 23.4657C5.20768 23.1153 4.43434 22.4024 4.09601 21.472C3.74559 20.5415 3.86643 19.5145 4.42226 18.5961L5.81184 16.2882C6.10184 15.8049 6.36768 14.8382 6.36768 14.2703V10.7782C6.36768 6.28323 10.0289 2.62198 14.524 2.62198C19.019 2.62198 22.6802 6.28323 22.6802 10.7782V14.2703C22.6802 14.8261 22.946 15.8049 23.236 16.3003L24.6135 18.5961C25.1331 19.4661 25.2298 20.5174 24.8794 21.472C24.529 22.4265 23.7677 23.1515 22.8131 23.4657C20.1548 24.3599 17.3394 24.807 14.524 24.807ZM14.524 4.43448C11.0318 4.43448 8.18018 7.27406 8.18018 10.7782V14.2703C8.18018 15.1524 7.81768 16.4574 7.37059 17.2186L5.98101 19.5265C5.71518 19.9736 5.64268 20.4449 5.79976 20.8436C5.94476 21.2545 6.30726 21.5686 6.80268 21.7378C11.8535 23.4295 17.2065 23.4295 22.2573 21.7378C22.6923 21.5928 23.0306 21.2665 23.1877 20.8315C23.3448 20.3965 23.3085 19.9253 23.0669 19.5265L21.6773 17.2186C21.2181 16.4332 20.8677 15.1403 20.8677 14.2582V10.7782C20.8677 7.27406 18.0281 4.43448 14.524 4.43448Z" fill="white"/>
<path d="M16.7711 4.76106C16.6865 4.76106 16.6019 4.74897 16.5173 4.72481C16.1669 4.62814 15.8286 4.55564 15.5023 4.50731C14.4752 4.37439 13.4844 4.44689 12.554 4.72481C12.2156 4.83356 11.8532 4.72481 11.6236 4.47106C11.394 4.21731 11.3215 3.85481 11.4544 3.52856C11.9498 2.25981 13.1581 1.42606 14.5356 1.42606C15.9131 1.42606 17.1215 2.24772 17.6169 3.52856C17.7377 3.85481 17.6773 4.21731 17.4477 4.47106C17.2665 4.66439 17.0127 4.76106 16.7711 4.76106Z" fill="white"/>
<path d="M14.5234 27.5622C13.3272 27.5622 12.1672 27.0789 11.3214 26.233C10.4755 25.3872 9.99219 24.2272 9.99219 23.0309H11.8047C11.8047 23.7439 12.0947 24.4447 12.6022 24.9522C13.1097 25.4597 13.8105 25.7497 14.5234 25.7497C16.0217 25.7497 17.2422 24.5293 17.2422 23.0309H19.0547C19.0547 25.5322 17.0247 27.5622 14.5234 27.5622Z" fill="white"/>
<circle cx="21.1458" cy="5.43749" r="3.02083" fill="#FF0000"/>
<path d="M20.8727 5.10607V5.83334H20.7846V5.1984H20.7804L20.6028 5.3163V5.22681L20.7846 5.10607H20.8727ZM21.0819 5.83334V5.76942L21.3219 5.50664C21.3501 5.47586 21.3733 5.44911 21.3915 5.42638C21.4098 5.40342 21.4233 5.38188 21.432 5.36175C21.441 5.34139 21.4455 5.32009 21.4455 5.29783C21.4455 5.27226 21.4394 5.25013 21.427 5.23143C21.415 5.21272 21.3984 5.19828 21.3773 5.1881C21.3563 5.17792 21.3326 5.17283 21.3063 5.17283C21.2784 5.17283 21.254 5.17863 21.2332 5.19023C21.2126 5.2016 21.1966 5.21758 21.1852 5.23817C21.1741 5.25877 21.1685 5.28292 21.1685 5.31062H21.0847C21.0847 5.268 21.0945 5.2306 21.1142 5.1984C21.1338 5.1662 21.1606 5.14111 21.1944 5.12312C21.2285 5.10512 21.2668 5.09613 21.3091 5.09613C21.3518 5.09613 21.3895 5.10512 21.4224 5.12312C21.4553 5.14111 21.4811 5.16537 21.4998 5.19591C21.5185 5.22645 21.5279 5.26043 21.5279 5.29783C21.5279 5.32458 21.523 5.35074 21.5133 5.37631C21.5039 5.40164 21.4873 5.42993 21.4636 5.46118C21.4402 5.4922 21.4076 5.53008 21.366 5.57482L21.2026 5.74954V5.75522H21.5407V5.83334H21.0819Z" fill="white"/>
</svg>
