<svg width="40" height="40" viewBox="0 0 40 40" fill="none" xmlns="http://www.w3.org/2000/svg">
    <path d="M20 20C22.7614 20 25 17.7614 25 15C25 12.2386 22.7614 10 20 10C17.2386 10 15 12.2386 15 15C15 17.7614 17.2386 20 20 20Z" stroke="#8D93AC" strokeWidth="2"/>
    <path d="M19.9997 36.6666C29.2044 36.6666 36.6663 29.2047 36.6663 20C36.6663 10.7952 29.2044 3.3333 19.9997 3.3333C10.7949 3.3333 3.33301 10.7952 3.33301 20C3.33301 29.2047 10.7949 36.6666 19.9997 36.6666Z" stroke="#8D93AC" strokeWidth="2"/>
    <path d="M29.9485 33.3333C29.6833 28.5142 28.2078 25 19.9998 25C11.792 25 10.3165 28.5142 10.0513 33.3333" stroke="#8D93AC" strokeWidth="2" strokeLinecap="round"/>
</svg>